<svg width="38" height="39" viewBox="0 0 38 39" fill="none" xmlns="http://www.w3.org/2000/svg">
<rect y="0.746094" width="38" height="38" rx="19" fill="#CAD6D1"/>
<path fill-rule="evenodd" clip-rule="evenodd" d="M14.4545 14.3613C13.5759 14.3613 12.8636 15.0743 12.8636 15.954V23.5382C12.8636 24.4179 13.5759 25.1309 14.4545 25.1309H23.5455C24.4241 25.1309 25.1364 24.4179 25.1364 23.5382V15.954C25.1364 15.0743 24.4241 14.3613 23.5455 14.3613H14.4545ZM11.5 15.954C11.5 14.3204 12.8228 12.9961 14.4545 12.9961H23.5455C25.1772 12.9961 26.5 14.3204 26.5 15.954V23.5382C26.5 25.1718 25.1772 26.4961 23.5455 26.4961H14.4545C12.8228 26.4961 11.5 25.1718 11.5 23.5382V15.954Z" fill="#465953"/>
<path fill-rule="evenodd" clip-rule="evenodd" d="M16.75 17.3926C16.2787 17.3926 15.8966 17.7747 15.8966 18.2461C15.8966 18.7174 16.2787 19.0995 16.75 19.0995C17.2213 19.0995 17.6034 18.7174 17.6034 18.2461C17.6034 17.7747 17.2213 17.3926 16.75 17.3926ZM14.5 18.2461C14.5 17.0035 15.5074 15.9961 16.75 15.9961C17.9926 15.9961 19 17.0035 19 18.2461C19 19.4887 17.9926 20.4961 16.75 20.4961C15.5074 20.4961 14.5 19.4887 14.5 18.2461Z" fill="#465953"/>
<path fill-rule="evenodd" clip-rule="evenodd" d="M20.5 16.7461C20.5 16.3319 20.8181 15.9961 21.2105 15.9961H22.7895C23.1819 15.9961 23.5 16.3319 23.5 16.7461C23.5 17.1603 23.1819 17.4961 22.7895 17.4961H21.2105C20.8181 17.4961 20.5 17.1603 20.5 16.7461Z" fill="#465953"/>
<path fill-rule="evenodd" clip-rule="evenodd" d="M20.5 19.7461C20.5 19.3319 20.8181 18.9961 21.2105 18.9961H22.7895C23.1819 18.9961 23.5 19.3319 23.5 19.7461C23.5 20.1603 23.1819 20.4961 22.7895 20.4961H21.2105C20.8181 20.4961 20.5 20.1603 20.5 19.7461Z" fill="#465953"/>
<path fill-rule="evenodd" clip-rule="evenodd" d="M14.5 22.7461C14.5 22.3319 14.8073 21.9961 15.1864 21.9961H22.8136C23.1927 21.9961 23.5 22.3319 23.5 22.7461C23.5 23.1603 23.1927 23.4961 22.8136 23.4961H15.1864C14.8073 23.4961 14.5 23.1603 14.5 22.7461Z" fill="#465953"/>
</svg>
