<svg width="39" height="39" viewBox="0 0 39 39" fill="none" xmlns="http://www.w3.org/2000/svg">
<rect x="0.666992" y="0.746094" width="38" height="38" rx="19" fill="#CAD6D1"/>
<path fill-rule="evenodd" clip-rule="evenodd" d="M14.417 14.4961C14.2181 14.4961 14.0273 14.5751 13.8867 14.7158C13.7505 14.8519 13.6722 15.0349 13.6672 15.2269C13.8397 17.9598 15.0032 20.5364 16.9399 22.4731C18.8767 24.4099 21.4533 25.5734 24.1862 25.7458C24.3782 25.7409 24.5612 25.6625 24.6973 25.5264C24.838 25.3858 24.917 25.195 24.917 24.9961V22.5039L22.2315 21.4297L21.4351 22.757C21.2343 23.0917 20.8103 23.2164 20.4603 23.0437C18.6835 22.1675 17.2456 20.7295 16.3693 18.9528C16.1967 18.6028 16.3214 18.1788 16.6561 17.978L17.9834 17.1816L16.9092 14.4961H14.417ZM12.826 13.6551C13.248 13.2331 13.8203 12.9961 14.417 12.9961H17.417C17.7237 12.9961 17.9995 13.1828 18.1133 13.4676L19.6133 17.2176C19.7501 17.5593 19.6185 17.9498 19.3029 18.1392L18.0474 18.8925C18.6653 19.9002 19.5129 20.7478 20.5206 21.3657L21.2739 20.1102C21.4633 19.7946 21.8537 19.663 22.1955 19.7997L25.9455 21.2997C26.2303 21.4136 26.417 21.6894 26.417 21.9961V24.9961C26.417 25.5928 26.1799 26.1651 25.758 26.5871C25.336 27.009 24.7637 27.2461 24.167 27.2461C24.1518 27.2461 24.1366 27.2456 24.1215 27.2447C21.0131 27.0558 18.0813 25.7358 15.8793 23.5338C13.6773 21.3318 12.3573 18.4 12.1684 15.2916C12.1675 15.2764 12.167 15.2613 12.167 15.2461C12.167 14.6494 12.404 14.0771 12.826 13.6551Z" fill="#465953"/>
<path fill-rule="evenodd" clip-rule="evenodd" d="M21.167 15.9961C21.167 15.5819 21.5028 15.2461 21.917 15.2461C22.5137 15.2461 23.086 15.4831 23.508 15.9051C23.9299 16.3271 24.167 16.8994 24.167 17.4961C24.167 17.9103 23.8312 18.2461 23.417 18.2461C23.0028 18.2461 22.667 17.9103 22.667 17.4961C22.667 17.2972 22.588 17.1064 22.4473 16.9658C22.3067 16.8251 22.1159 16.7461 21.917 16.7461C21.5028 16.7461 21.167 16.4103 21.167 15.9961Z" fill="#465953"/>
<path fill-rule="evenodd" clip-rule="evenodd" d="M21.167 12.9961C21.167 12.5819 21.5028 12.2461 21.917 12.2461C23.3094 12.2461 24.6447 12.7992 25.6293 13.7838C26.6139 14.7683 27.167 16.1037 27.167 17.4961C27.167 17.9103 26.8312 18.2461 26.417 18.2461C26.0028 18.2461 25.667 17.9103 25.667 17.4961C25.667 16.5015 25.2719 15.5477 24.5686 14.8444C23.8654 14.1412 22.9116 13.7461 21.917 13.7461C21.5028 13.7461 21.167 13.4103 21.167 12.9961Z" fill="#465953"/>
</svg>
