<svg width="39" height="39" viewBox="0 0 39 39" fill="none" xmlns="http://www.w3.org/2000/svg">
<rect x="0.333008" y="0.746094" width="38" height="38" rx="19" fill="#CAD6D1"/>
<path fill-rule="evenodd" clip-rule="evenodd" d="M14.083 14.4961C13.6688 14.4961 13.333 14.8319 13.333 15.2461V25.7461C13.333 26.1603 13.6688 26.4961 14.083 26.4961H24.583C24.9972 26.4961 25.333 26.1603 25.333 25.7461V15.2461C25.333 14.8319 24.9972 14.4961 24.583 14.4961H14.083ZM11.833 15.2461C11.833 14.0035 12.8404 12.9961 14.083 12.9961H24.583C25.8256 12.9961 26.833 14.0035 26.833 15.2461V25.7461C26.833 26.9887 25.8256 27.9961 24.583 27.9961H14.083C12.8404 27.9961 11.833 26.9887 11.833 25.7461V15.2461Z" fill="#465953"/>
<path fill-rule="evenodd" clip-rule="evenodd" d="M11.833 18.2461C11.833 17.8319 12.1688 17.4961 12.583 17.4961H26.083C26.4972 17.4961 26.833 17.8319 26.833 18.2461C26.833 18.6603 26.4972 18.9961 26.083 18.9961H12.583C12.1688 18.9961 11.833 18.6603 11.833 18.2461Z" fill="#465953"/>
<path fill-rule="evenodd" clip-rule="evenodd" d="M22.333 11.4961C22.7472 11.4961 23.083 11.8319 23.083 12.2461V15.2461C23.083 15.6603 22.7472 15.9961 22.333 15.9961C21.9188 15.9961 21.583 15.6603 21.583 15.2461V12.2461C21.583 11.8319 21.9188 11.4961 22.333 11.4961Z" fill="#587169"/>
<path fill-rule="evenodd" clip-rule="evenodd" d="M16.333 11.4961C16.7472 11.4961 17.083 11.8319 17.083 12.2461V15.2461C17.083 15.6603 16.7472 15.9961 16.333 15.9961C15.9188 15.9961 15.583 15.6603 15.583 15.2461V12.2461C15.583 11.8319 15.9188 11.4961 16.333 11.4961Z" fill="#587169"/>
</svg>
